HIERARCHY
ROOT Hips
{
	OFFSET 0.000000 0.000000 0.000000
	CHANNELS 6 Xposition Yposition Zposition Xrotation Zrotation Yrotation
	JOINT Spine
	{
		OFFSET 0.000000 -365.647827 -0.000120
		CHANNELS 6 Xposition Yposition Zposition Xrotation Zrotation Yrotation
		JOINT Spine1
		{
			OFFSET 0.000000 -827.386597 -0.000270
			CHANNELS 6 Xposition Yposition Zposition Xrotation Zrotation Yrotation
			JOINT Neck
			{
				OFFSET 0.000000 -916.568848 -0.000298
				CHANNELS 6 Xposition Yposition Zposition Xrotation Zrotation Yrotation
				JOINT Head
				{
					OFFSET 0.000000 -691.163574 -89.182617
					CHANNELS 6 Xposition Yposition Zposition Xrotation Zrotation Yrotation
					End Site
					{
						OFFSET 0.000000 -891.823975 -0.000290
					}
				}
			}
			JOINT LeftShoulder
			{
				OFFSET 177.992798 -747.856689 19.451471
				CHANNELS 6 Xposition Yposition Zposition Xrotation Zrotation Yrotation
				JOINT LeftArm
				{
					OFFSET 515.877136 0.000000 0.000000
					CHANNELS 6 Xposition Yposition Zposition Xrotation Zrotation Yrotation
					JOINT LeftForeArm
					{
						OFFSET 1337.809814 0.000000 0.000000
						CHANNELS 6 Xposition Yposition Zposition Xrotation Zrotation Yrotation
						JOINT LeftHand
						{
							OFFSET 1196.500488 0.000000 0.000000
							CHANNELS 6 Xposition Yposition Zposition Xrotation Zrotation Yrotation
							End Site
							{
								OFFSET 668.868164 0.000000 0.000000
							}
						}
					}
				}
			}
			JOINT RightShoulder
			{
				OFFSET -178.356552 -747.856689 19.451471
				CHANNELS 6 Xposition Yposition Zposition Xrotation Zrotation Yrotation
				JOINT RightArm
				{
					OFFSET -515.877136 0.000000 0.000000
					CHANNELS 6 Xposition Yposition Zposition Xrotation Zrotation Yrotation
					JOINT RightForeArm
					{
						OFFSET -1337.809814 0.000000 0.000000
						CHANNELS 6 Xposition Yposition Zposition Xrotation Zrotation Yrotation
						JOINT RightHand
						{
							OFFSET -1196.500488 0.000000 0.000000
							CHANNELS 6 Xposition Yposition Zposition Xrotation Zrotation Yrotation
							End Site
							{
								OFFSET -668.868164 0.000000 0.000000
							}
						}
					}
				}
			}
		}
	}
	JOINT LeftUpLeg
	{
		OFFSET 445.911926 0.000000 0.000000
		CHANNELS 6 Xposition Yposition Zposition Xrotation Zrotation Yrotation
		JOINT LeftLeg
		{
			OFFSET 0.000000 2320.838135 0.000756
			CHANNELS 6 Xposition Yposition Zposition Xrotation Zrotation Yrotation
			JOINT LeftFoot
			{
				OFFSET 0.000000 1864.391846 0.000608
				CHANNELS 6 Xposition Yposition Zposition Xrotation Zrotation Yrotation
				JOINT LeftToeBase
				{
					OFFSET 0.000000 289.842773 -668.867798
					CHANNELS 6 Xposition Yposition Zposition Xrotation Zrotation Yrotation
					End Site
					{
						OFFSET 0.000000 0.000000 -178.364807
					}
				}
			}
		}
	}
	JOINT RightUpLeg
	{
		OFFSET -445.911926 0.000000 0.000000
		CHANNELS 6 Xposition Yposition Zposition Xrotation Zrotation Yrotation
		JOINT RightLeg
		{
			OFFSET 0.000000 2320.838135 0.000756
			CHANNELS 6 Xposition Yposition Zposition Xrotation Zrotation Yrotation
			JOINT RightFoot
			{
				OFFSET 0.000000 1864.391846 0.000608
				CHANNELS 6 Xposition Yposition Zposition Xrotation Zrotation Yrotation
				JOINT RightToeBase
				{
					OFFSET 0.000000 289.842773 -668.867798
					CHANNELS 6 Xposition Yposition Zposition Xrotation Zrotation Yrotation
					End Site
					{
						OFFSET 0.000000 0.000000 -178.364807
					}
				}
			}
		}
	}
}
MOTION
Frames: 4
Frame Time: 0.041667
11.188638 -3667.727051 582.713501 3.159402 1.255728 0.546164 0.000010 -365.647583 -0.000000 11.187198 1.722928 4.015063 -0.000004 -827.387268 -0.000256 10.717790 3.957758 1.649411 0.000067 -916.567749 -0.000361 12.590943 3.082797 17.598399 -0.000158 -691.163269 -89.183014 7.013688 -26.039111 19.846134 177.992935 -747.855408 19.451286 2.084361 0.423028 17.320001 515.877075 0.000943 -0.000484 61.452496 -4.962832 40.917665 1337.809204 -0.000114 0.000829 -71.507593 -38.956804 116.902540 1196.501221 -0.001312 0.000103 -15.243338 -31.162878 12.947558 -178.356476 -747.855957 19.451679 -1.967672 2.185915 -7.688013 -515.877136 0.000032 -0.000209 34.192368 -14.478145 -29.699595 -1337.810059 -0.000391 -0.000299 -11.107281 4.040440 2.438099 -1196.500488 0.000460 -0.000187 -10.582580 21.495401 3.216251 445.911926 0.000153 -0.000038 -23.363173 -34.244489 16.709295 -0.000083 2320.837158 0.000632 36.318407 35.413875 -13.500692 -0.000187 1864.392090 0.000282 -17.786598 1.375388 -24.657384 -0.000257 289.842773 -668.867493 -0.000000 0.000003 0.000004 -445.911926 0.000076 0.000053 -19.732463 33.754341 -2.496526 -0.000020 2320.837891 0.000712 40.769611 -34.178250 -1.841172 0.000562 1864.391968 0.000564 -21.640517 4.992444 31.739466 -0.000146 289.842773 -668.867920 -0.000001 -0.000001 -0.000002 
10.806023 -3667.727783 582.266541 3.163979 1.261175 0.544733 -0.000005 -365.648132 -0.000244 11.200639 1.727939 4.010798 0.000050 -827.386292 -0.000286 10.732857 3.962351 1.648714 -0.000017 -916.568970 -0.000178 12.589762 3.075016 17.596461 -0.000195 -691.163879 -89.182793 7.009964 -26.023210 19.843918 177.992859 -747.855957 19.451466 2.082241 0.420309 17.317292 515.877014 -0.000213 -0.000586 61.473212 -4.967918 40.921221 1337.809692 -0.000425 0.000348 -71.524996 -38.963664 116.913673 1196.500854 -0.000451 0.000242 -15.230468 -31.105580 12.936773 -178.356430 -747.856140 19.451258 -1.965819 2.175059 -7.684236 -515.877380 -0.000036 0.000240 34.211072 -14.466728 -29.709824 -1337.810181 0.000257 0.001106 -11.142690 4.033874 2.424217 -1196.500488 0.000312 -0.000080 -10.619584 21.558934 3.194830 445.911896 -0.000366 0.000053 -23.361682 -34.251141 16.711342 -0.000021 2320.837891 0.000449 36.315122 35.404801 -13.449440 -0.000501 1864.391724 0.000525 -17.791833 1.394169 -24.708343 -0.000075 289.842773 -668.868042 -0.000001 0.000002 0.000004 -445.911865 0.000000 0.000046 -19.731173 33.746107 -2.489097 0.000010 2320.838623 0.000559 40.780611 -34.180999 -1.850443 0.000654 1864.392212 0.000320 -21.647120 4.999435 31.744452 -0.000215 289.842773 -668.867737 0.000004 -0.000001 -0.000002 
10.351582 -3667.860107 582.023254 3.177283 1.266693 0.536604 0.000007 -365.648254 0.000053 11.210772 1.718743 4.011484 -0.000011 -827.386902 -0.000179 10.729098 3.943011 1.647209 0.000120 -916.569702 -0.000300 12.589928 3.066950 17.594712 0.000277 -691.163147 -89.182861 7.010192 -25.982128 19.839297 177.992874 -747.856995 19.451675 2.094972 0.426534 17.306487 515.877075 -0.001830 -0.000305 61.497835 -4.993499 40.942650 1337.809692 -0.000179 -0.000230 -71.577247 -38.989144 116.917102 1196.500610 -0.001372 -0.000002 -15.245279 -31.068871 12.956208 -178.356491 -747.857300 19.451437 -1.951569 2.185886 -7.692783 -515.877502 0.000690 0.000023 34.231078 -14.463918 -29.719738 -1337.809937 0.001040 0.000753 -11.131789 4.018295 2.442930 -1196.501099 0.000228 0.000074 -10.603385 21.624177 3.214375 445.911957 -0.000092 0.000038 -23.377603 -34.253747 16.720149 0.000131 2320.838135 0.000617 36.314343 35.390799 -13.452978 -0.000387 1864.392456 0.000495 -17.781783 1.385355 -24.704069 0.000091 289.842773 -668.867920 -0.000000 0.000001 -0.000002 -445.911896 -0.000229 0.000015 -19.736994 33.733123 -2.480237 -0.000295 2320.838135 0.000727 40.786355 -34.175685 -1.821660 0.000806 1864.392334 0.000412 -21.658221 4.985367 31.728319 0.000087 289.842773 -668.867432 -0.000000 -0.000000 0.000002 
9.895877 -3667.871338 581.612122 3.178723 1.265942 0.532105 0.000029 -365.648041 -0.000298 11.212778 1.709896 4.005052 -0.000004 -827.386292 -0.000134 10.737344 3.929478 1.644392 -0.000002 -916.569458 -0.000574 12.576269 3.075643 17.591091 0.000019 -691.165222 -89.182228 7.020971 -25.970483 19.832904 177.992874 -747.856140 19.451118 2.093376 0.439868 17.305485 515.877136 0.001402 -0.000401 61.496120 -4.988367 40.938562 1337.809570 -0.000124 0.000669 -71.549947 -38.980515 116.919725 1196.500610 0.000235 0.000235 -15.225069 -31.068850 12.948463 -178.356537 -747.856873 19.451330 -1.959214 2.196419 -7.687830 -515.877319 0.000049 0.000156 34.354526 -14.427183 -29.781302 -1337.810181 -0.000204 0.001143 -11.182257 4.048049 2.496523 -1196.500854 -0.000035 -0.000290 -10.664125 21.571814 3.181737 445.911957 -0.000366 0.000092 -23.372410 -34.251725 16.718181 0.000314 2320.837891 0.000800 36.306902 35.376712 -13.453484 -0.000410 1864.392212 0.000678 -17.784423 1.438393 -24.717562 -0.000303 289.842743 -668.867859 -0.000002 0.000001 -0.000004 -445.911926 -0.000504 0.000092 -19.734694 33.725674 -2.476398 0.000438 2320.837891 0.000543 40.797099 -34.166546 -1.782679 0.000592 1864.392090 0.000244 -21.627577 5.008929 31.707869 0.000095 289.842743 -668.868408 0.000002 0.000001 -0.000001 
